<?xml version="1.0" encoding="UTF-8"?>
<svg id="_Слой_1" data-name="Слой_1" xmlns="http://www.w3.org/2000/svg" viewBox="0 0 780.67 767.7">
  <defs>
    <style>
      .cls-1, .cls-2 {
        fill: #fff;
      }

      .cls-2 {
        stroke: #000;
        stroke-linecap: round;
        stroke-linejoin: round;
        stroke-width: .5px;
      }

      .cls-3 {
        fill: #333;
      }

      .cls-4 {
        fill: #7a7a7a;
      }
    </style>
  </defs>
  <rect class="cls-2" x="377.15" y=".59" width="40.23" height="766.7"/>
  <rect class="cls-1" x=".76" y="122.07" width="778.65" height="526.23"/>
  <g>
    <path class="cls-3" d="M385.83,278.33c-15.81,1.44-32.35,8.83-44.65,18.68-18.98,15.17-31.14,37.28-33.79,61.43-2.72,24.57,4.57,49.2,20.23,68.33,14.27,17.54,35.16,29.62,57.78,31.9v48.86c.03,7.65.47,19.26-.05,26.49l-.62.3-1.2-1c-2.2-2.12-5.51-4.78-7.98-6.52-15.96-11.47-35.84-16.06-55.21-12.73-22.03,3.92-36.73,15.32-49.28,33.15-14.42-20.35-34.29-34.03-60-34.1-19.63-.09-38.47,7.71-52.3,21.65-20.72,20.7-21.9,39.15-21.93,66.17H.31s.02-380.07.02-380.07l58.56.05c32.22.02,25.59,4.51,42.79-22.49,3.76,4.17,6.68,10.75,9.53,15.67,4.05,6.98,29.64,52.48,32.51,53.8.95.44,2.76.49,3.73.19,1.58-.49,2.5-1.87,3.41-3.14,4.79-6.64,8.72-14.33,12.92-21.38,8.98-15.22,18.1-30.37,27.35-45.44,5.41,9.17,38.73,67.98,42.03,69.62.84.43,2.58.93,3.49.59,1.79-.69,3.37-2.98,4.46-4.52,4.9-6.92,9.01-14.85,13.36-22.14l26.38-43.8c3.2,5.24,9.77,16.61,13.26,20.73,3.03,3.58,27.67,2.33,32.95,2.34h58.77v57.38Z"/>
    <path class="cls-3" d="M385.12,767.3c-40.61-.44-81.86-.09-122.52-.1l-127.99-.02c-67.07-.45-122.95-46.12-133.19-113.7-1.4-9.26-1.15-18.52-1.08-27.84h103.94c15.43-.01,33.73.44,48.97-.21,7.61-4.72,7.25-8.08,7.19-16.44-.14-19.8-2.56-37.93,11.69-54.06,9.64-10.92,20.47-16.49,35-17.75,1.36-.09,2.71-.12,4.07-.09,10.2.23,20.06,3.71,28.14,9.93,31.97,24.25,13.24,58.55,23.24,68.5,2.42,2.42,6.02,3.6,9.4,3.54,12.71-.24,10.48-17.58,10.48-25.98,0-5.52,0-11.21,1.1-16.65,1.67-8.35,6.73-17.04,12.49-23.22,9.22-9.93,22.02-15.75,35.56-16.16,23.94-.53,46.33,16.82,51.74,40.17,2.14,9.27,1.58,19.63,1.61,29.17l.06,30.87c.06,43.18-.44,86.9.1,130.04Z"/>
    <path class="cls-3" d="M389.59,309.85c32.37-4.24,62.04,18.6,66.22,50.98,4.17,32.38-18.74,61.99-51.12,66.1-32.29,4.09-61.8-18.73-65.96-51.01s18.6-61.84,50.86-66.07Z"/>
    <path class="cls-4" d="M569.03,767.26c-52.34.01-105.64.51-157.89-.12v-129.92l-.04-35.1c-.03-20.82-.66-36.81,16.07-52.21,8.56-7.88,17.47-11.61,29-12.73,26.76-1.27,48.33,18.38,50.78,45.03.52,5.61.12,12.7.03,18.38-.17,11.11-.06,15.78,11.71,18.52,3.45-.88,6.99-1.72,9.14-4.81,7.4-10.59-7.54-37.92,15.83-62.02,9.3-9.72,22.16-15.23,35.62-15.25,26.04-.17,48.47,20.85,49.63,46.99.16,8.37.02,17.71-.04,25.98-.07,8.55.52,15.09,10.76,15.51,5.59.23,11.4.13,17.06.11h28.65s94.84-.05,94.84-.05c.33,33.21-4.17,54.3-22.07,82.59-5.24,7.75-11.28,14.94-18.01,21.45-17.54,16.9-39.34,28.7-63.09,34.15-19.5,4.44-38.01,3.51-57.84,3.49h-50.14Z"/>
    <path class="cls-4" d="M465.18,513.28c-21.49-2.1-37.86,6.13-53.9,19.31l-.05-73.95c12.07-1.42,24.46-6.23,34.54-12.96,20.64-13.88,34.98-35.34,39.92-59.71,4.69-23.84-.35-48.57-13.99-68.67-14.61-21.58-34.51-34.19-59.88-39.03l-.02-57.31h148.08c-.1,23.45-.17,47.11.07,70.5.06,5.07,20.56,3.75,24.3,1.31.19-.35.39-.71.59-1.06.06-10.55.04-31.23.04-40.97v-83.46c0-11.34.63-33.94-.64-43.93-2.21-1.45-20.27-1.49-22.78-.41-.97,1-1.62,2.1-1.63,3.51-.05,6.83.05,13.79.05,20.61l-.05,48.94-148,.03.05-195.46,165.79.05,46.79-.02c18.47,0,34.24-.82,52.51,3.37,24.44,5.61,46.8,17.98,64.54,35.7,21.38,21.08,34.77,48.92,37.89,78.77,1.08,10.55.77,23.57.76,34.27l.02,43.38h-144.32s.06-47.45.06-47.45c.01-5.51.35-20.06-.52-24.47-2.18-2.66-20.39-2.53-23.16-1.12-.94,1.27-1.32,2.35-1.31,3.93.04,10.23-.01,20.56-.03,30.77l-.02,67.9v42.95c0,6.45-.31,18.2.51,24.13,1.99,2.81,20.55,2.37,23.26.97,2.1-2.46,1.24-22,1.23-26.38v-46.37s144.25,0,144.25,0c.65,42.94.01,87.74,0,130.83l.03,249.17c-11.54-.02-125.24.71-127.65-.55l-.18-1.8c.03-8.04.36-17.27-1.13-25.1-3.75-19.64-14.88-36.47-31.21-47.8-15.69-10.9-35.11-15.04-53.88-11.48-20.32,3.71-36.14,15.48-47.72,32.23-1.81-2.61-3.7-5.16-5.65-7.65-11.8-14.54-28.93-23.73-47.56-25.52Z"/>
    <path class="cls-3" d="M385.86.6l-.04,195.37-78.72.03c-7.64-12.23-15.16-25.7-23.7-37.15-4.9-6.57-14.7,13.11-16.52,16.15l-20.39,34.02c-3.14,5.25-7.26,13.05-11.01,17.61-6-9.26-11.9-19.57-17.57-29.1-7.63-12.76-14.85-26.19-23.26-38.34-2.04-2.95-6.82-.92-8.65,1.87-4.8,7.29-9.27,14.97-13.74,22.44l-26.09,43.37c-13.54-21.59-26.14-46.63-40.58-67.77-1.63-2.38-6.08-1.35-7.98,1.25-3.06,4.22-5.69,8.61-8.45,13.12l-13.81,22.55-75.04-.03v-44.59c-.01-9.09-.29-20.42.45-29.32,2.35-28.63,14.09-55.68,33.39-76.95C59.41,17.1,92.2,2.51,129.62.69c27.43-.92,59.74-.1,87.48-.1h168.76Z"/>
  </g>
</svg>