<?xml version="1.0" encoding="UTF-8"?>
<svg id="_Слой_1" data-name="Слой 1" xmlns="http://www.w3.org/2000/svg" viewBox="0 0 97 97">
  <defs>
    <style>
      .cls-1 {
        fill: none;
        stroke: #e52521;
      }

      .cls-1, .cls-2, .cls-3 {
        stroke-miterlimit: 10;
      }

      .cls-2 {
        fill: #45a1da;
        stroke: #45a1da;
      }

      .cls-3 {
        fill: #1d1d1b;
        stroke: #1d1d1b;
      }
    </style>
  </defs>
  <rect class="cls-3" x=".5" y=".5" width="96" height="96"/>
  <g>
    <line class="cls-1" x1="8.5" y1="11.64" x2="15.5" y2="11.64"/>
    <line class="cls-1" x1="48.6" y1="11.64" x2="39.6" y2="11.64"/>
    <line class="cls-1" x1="15.03" y1="11.64" x2="17.02" y2="17.64"/>
    <line class="cls-1" x1="16.93" y1="17.34" x2="20.8" y2="5.5"/>
    <line class="cls-1" x1="20.75" y1="5.9" x2="22.69" y2="17.5"/>
    <line class="cls-1" x1="22.69" y1="17.34" x2="26.56" y2="5.5"/>
    <line class="cls-1" x1="26.51" y1="5.9" x2="28.45" y2="17.5"/>
    <line class="cls-1" x1="28.5" y1="17.28" x2="32.37" y2="5.43"/>
    <line class="cls-1" x1="32.33" y1="5.83" x2="34.26" y2="17.42"/>
    <line class="cls-1" x1="34.25" y1="17.2" x2="38.12" y2="5.36"/>
    <line class="cls-1" x1="38.11" y1="5.67" x2="40.09" y2="11.66"/>
  </g>
  <g>
    <line class="cls-1" x1="48.5" y1="11.64" x2="55.5" y2="11.64"/>
    <line class="cls-1" x1="88.6" y1="11.64" x2="79.6" y2="11.64"/>
    <line class="cls-1" x1="55.03" y1="11.64" x2="57.02" y2="17.64"/>
    <line class="cls-1" x1="56.93" y1="17.34" x2="60.8" y2="5.5"/>
    <line class="cls-1" x1="60.75" y1="5.9" x2="62.69" y2="17.5"/>
    <line class="cls-1" x1="62.69" y1="17.34" x2="66.56" y2="5.5"/>
    <line class="cls-1" x1="66.51" y1="5.9" x2="68.45" y2="17.5"/>
    <line class="cls-1" x1="68.5" y1="17.28" x2="72.37" y2="5.43"/>
    <line class="cls-1" x1="72.33" y1="5.83" x2="74.26" y2="17.42"/>
    <line class="cls-1" x1="74.25" y1="17.2" x2="78.12" y2="5.36"/>
    <line class="cls-1" x1="78.11" y1="5.67" x2="80.09" y2="11.66"/>
  </g>
  <g>
    <line class="cls-1" x1="8.5" y1="29.64" x2="15.5" y2="29.64"/>
    <line class="cls-1" x1="48.6" y1="29.64" x2="39.6" y2="29.64"/>
    <line class="cls-1" x1="15.03" y1="29.64" x2="17.02" y2="35.64"/>
    <line class="cls-1" x1="16.93" y1="35.34" x2="20.8" y2="23.5"/>
    <line class="cls-1" x1="20.75" y1="23.9" x2="22.69" y2="35.5"/>
    <line class="cls-1" x1="22.69" y1="35.34" x2="26.56" y2="23.5"/>
    <line class="cls-1" x1="26.51" y1="23.9" x2="28.45" y2="35.5"/>
    <line class="cls-1" x1="28.5" y1="35.28" x2="32.37" y2="23.43"/>
    <line class="cls-1" x1="32.33" y1="23.83" x2="34.26" y2="35.42"/>
    <line class="cls-1" x1="34.25" y1="35.2" x2="38.12" y2="23.36"/>
    <line class="cls-1" x1="38.11" y1="23.67" x2="40.09" y2="29.66"/>
  </g>
  <g>
    <line class="cls-1" x1="48.5" y1="29.64" x2="55.5" y2="29.64"/>
    <line class="cls-1" x1="88.6" y1="29.64" x2="79.6" y2="29.64"/>
    <line class="cls-1" x1="55.03" y1="29.64" x2="57.02" y2="35.64"/>
    <line class="cls-1" x1="56.93" y1="35.34" x2="60.8" y2="23.5"/>
    <line class="cls-1" x1="60.75" y1="23.9" x2="62.69" y2="35.5"/>
    <line class="cls-1" x1="62.69" y1="35.34" x2="66.56" y2="23.5"/>
    <line class="cls-1" x1="66.51" y1="23.9" x2="68.45" y2="35.5"/>
    <line class="cls-1" x1="68.5" y1="35.28" x2="72.37" y2="23.43"/>
    <line class="cls-1" x1="72.33" y1="23.83" x2="74.26" y2="35.42"/>
    <line class="cls-1" x1="74.25" y1="35.2" x2="78.12" y2="23.36"/>
    <line class="cls-1" x1="78.11" y1="23.67" x2="80.09" y2="29.66"/>
  </g>
  <line class="cls-1" x1="8.55" y1="30.05" x2="8.55" y2="11.15"/>
  <line class="cls-1" x1="88.55" y1="11.15" x2="88.55" y2="30.05"/>
  <g>
    <line class="cls-1" x1="8.55" y1="88.5" x2="15.53" y2="81.52"/>
    <line class="cls-1" x1="48.55" y1="48.5" x2="39.57" y2="57.48"/>
    <line class="cls-1" x1="15.06" y1="81.99" x2="21.36" y2="84.32"/>
    <line class="cls-1" x1="21.06" y1="84.19" x2="16.4" y2="71.81"/>
    <line class="cls-1" x1="16.63" y1="72.15" x2="26.91" y2="78.55"/>
    <line class="cls-1" x1="26.8" y1="78.44" x2="22.14" y2="66.06"/>
    <line class="cls-1" x1="22.38" y1="66.4" x2="32.66" y2="72.81"/>
    <line class="cls-1" x1="32.55" y1="72.6" x2="27.89" y2="60.22"/>
    <line class="cls-1" x1="28.13" y1="60.54" x2="38.4" y2="66.95"/>
    <line class="cls-1" x1="38.23" y1="66.81" x2="33.57" y2="54.43"/>
    <line class="cls-1" x1="33.79" y1="54.66" x2="40.08" y2="57"/>
  </g>
  <g>
    <line class="cls-1" x1="81.57" y1="81.52" x2="88.55" y2="88.5"/>
    <line class="cls-1" x1="57.53" y1="57.48" x2="48.55" y2="48.5"/>
    <line class="cls-1" x1="75.74" y1="84.32" x2="82.04" y2="81.99"/>
    <line class="cls-1" x1="80.7" y1="71.81" x2="76.04" y2="84.19"/>
    <line class="cls-1" x1="70.19" y1="78.55" x2="80.47" y2="72.15"/>
    <line class="cls-1" x1="74.96" y1="66.06" x2="70.3" y2="78.44"/>
    <line class="cls-1" x1="64.44" y1="72.81" x2="74.72" y2="66.4"/>
    <line class="cls-1" x1="69.21" y1="60.22" x2="64.55" y2="72.6"/>
    <line class="cls-1" x1="58.7" y1="66.95" x2="68.96" y2="60.54"/>
    <line class="cls-1" x1="63.53" y1="54.43" x2="58.87" y2="66.81"/>
    <line class="cls-1" x1="57.02" y1="57" x2="63.31" y2="54.66"/>
  </g>
  <circle class="cls-2" cx="8.55" cy="20.5" r="1.49"/>
  <circle class="cls-2" cx="48.55" cy="48.5" r="1.49"/>
  <circle class="cls-2" cx="88.55" cy="88.5" r="1.49"/>
  <circle class="cls-2" cx="8.55" cy="88.5" r="1.49"/>
  <circle class="cls-2" cx="88.55" cy="20.5" r="1.49"/>
</svg>