<?xml version="1.0" encoding="UTF-8"?>
<svg id="_Слой_1" data-name="Слой 1" xmlns="http://www.w3.org/2000/svg" viewBox="0 0 20 20">
  <defs>
    <style>
      .cls-1 {
        fill: #1d1d1b;
      }
    </style>
  </defs>
  <path class="cls-1" d="M19,0h-3.5c-.28,0-.5,.22-.5,.5s.22,.5,.5,.5h3.5c.28,0,.5-.22,.5-.5s-.22-.5-.5-.5h0Zm-5.5,0h-3c-.28,0-.5,.22-.5,.5s.22,.5,.5,.5h3c.28,0,.5-.22,.5-.5s-.22-.5-.5-.5h0Zm-5,0h-3c-.28,0-.5,.22-.5,.5s.22,.5,.5,.5h3c.28,0,.5-.22,.5-.5s-.22-.5-.5-.5h0ZM3.5,0H1C.45,0,0,.45,0,1v1c0,.28,.22,.5,.5,.5s.5-.22,.5-.5V1H3.5c.28,0,.5-.22,.5-.5s-.22-.5-.5-.5h0ZM.5,3.5c-.28,0-.5,.22-.5,.5v3c0,.28,.22,.5,.5,.5s.5-.22,.5-.5v-3c0-.28-.22-.5-.5-.5H.5Zm0,5c-.28,0-.5,.22-.5,.5v3c0,.28,.22,.5,.5,.5s.5-.22,.5-.5v-3c0-.28-.22-.5-.5-.5H.5Zm0,5c-.28,0-.5,.22-.5,.5v3.5c0,.28,.22,.5,.5,.5s.5-.22,.5-.5v-3.5c0-.28-.22-.5-.5-.5H.5Zm4,5.5H1.5c-.28,0-.5,.22-.5,.5s.22,.5,.5,.5h3c.28,0,.5-.22,.5-.5s-.22-.5-.5-.5h0Zm5,0h-3c-.28,0-.5,.22-.5,.5s.22,.5,.5,.5h3c.28,0,.5-.22,.5-.5s-.22-.5-.5-.5h0Zm5.5,0h-3.5c-.28,0-.5,.22-.5,.5s.22,.5,.5,.5h3.5c.28,0,.5-.22,.5-.5s-.22-.5-.5-.5h0Zm4.5-1.5c-.28,0-.5,.22-.5,.5v1h-2c-.28,0-.5,.22-.5,.5s.22,.5,.5,.5h2c.55,0,1-.45,1-1v-1c0-.28-.22-.5-.5-.5h0Zm0-5c-.28,0-.5,.22-.5,.5v3c0,.28,.22,.5,.5,.5s.5-.22,.5-.5v-3c0-.28-.22-.5-.5-.5h0Zm0-5.5c-.28,0-.5,.22-.5,.5v3.5c0,.28,.22,.5,.5,.5s.5-.22,.5-.5v-3.5c0-.28-.22-.5-.5-.5h0Zm0-5c-.28,0-.5,.22-.5,.5v3c0,.28,.22,.5,.5,.5s.5-.22,.5-.5V2.5c0-.28-.22-.5-.5-.5h0Z"/>
</svg>